<?xml version="1.0" encoding="utf-8"?>
<!-- Generator: Adobe Illustrator 22.0.0, SVG Export Plug-In . SVG Version: 6.00 Build 0)  -->
<svg version="1.1" id="Layer_1" xmlns="http://www.w3.org/2000/svg" xmlns:xlink="http://www.w3.org/1999/xlink" x="0px" y="0px"
	 viewBox="0 0 200 200" style="enable-background:new 0 0 200 200;" xml:space="preserve">
<g fill="#EA581A">
	<path d="M190,29.1c-0.1,0-0.2,0-0.4-0.1l0,0c-0.1,0-0.2,0-0.3,0h-0.1c-0.1,0-0.2,0-0.4-0.1h-0.1c-0.1,0-0.3,0-0.5-0.1
		c0,0,0,0-0.1,0c-0.2,0-0.4,0-0.5-0.1l0,0c-10.7-1.4-56.5-5.2-99.1,23.9c0,0-26.9-17.1-75.7,14.7c0,0-2.8,6.4,3.9,14.8
		c0,0,24.5-4.4,37.7,3.9l0,0c-0.9,2.6-1.2,8.5,4.7,19.5l0.1-0.1c-7.5,5.8-14.4,11.8-19.2,17.3c0,0-0.2,1.1,1.2,3.3
		c1.4,2.2,2.5,2.4,2.5,2.4c7-2.2,15.2-6.1,23.6-10.6c0,0-0.1,0-0.1,0.1c7.6,9.9,13.1,11.9,15.9,12.2l0,0
		c2.2,15.4-11.7,36.1-11.7,36.1c5,9.4,12,9.5,12,9.5c48.9-31.8,44.1-63.3,44.1-63.3l0,0c21.7-13.5,36.4-30.9,46-46.3l0,0
		c0.4-0.6,0.7-1.2,1.1-1.8c0-0.1,0.1-0.1,0.1-0.2c0.3-0.6,0.7-1.2,1-1.7l0.1-0.1c0.3-0.6,0.7-1.2,1-1.7c0,0,0-0.1,0.1-0.1
		c6.9-12.1,10.6-22.4,12.2-27.6l0,0c0.1-0.2,0.1-0.5,0.2-0.7c0,0,0,0,0-0.1c0.1-0.2,0.1-0.4,0.2-0.6v-0.1c0-0.2,0.1-0.3,0.1-0.5
		v-0.1c0-0.1,0.1-0.3,0.1-0.4v-0.1c0-0.1,0.1-0.2,0.1-0.3v-0.1c0-0.1,0.1-0.2,0.1-0.2v-0.1c0-0.1,0-0.1,0-0.2v-0.1
		C190,29.2,190,29.1,190,29.1L190,29.1z"/>
	<path d="M106.4,71.8c-0.4-0.2-1-0.1-1.6,0.2c-0.7,0.3-1.4,1-2.3,2.3l2.8,4.8c1-0.4,1.7-1,2.1-1.7s0.6-1.3,0.6-2
		c0-0.6-0.1-1.4-0.4-2.3C107.3,72.4,106.8,71.9,106.4,71.8z"/>
	<path d="M117.8,83.6c-0.2-0.3-0.6-0.5-1.1-0.8s-1.1-0.3-1.7-0.3c-0.7,0.1-1.4,0.5-2.3,1.1c-0.8,0.7-1.8,1.8-2.7,3.4l3.6,4.3
		c1.7-0.9,2.9-1.8,3.7-2.7c0.7-0.9,1.1-1.7,1.3-2.4c0.1-0.7,0-1.5-0.3-2.3C118.1,84,118,83.9,117.8,83.6z"/>
</g>
</svg>
